<mxfile host="app.diagrams.net" agent="Mozilla/5.0 (Windows NT 10.0; Win64; x64) AppleWebKit/537.36 (KHTML, like Gecko) Chrome/138.0.0.0 Safari/537.36" version="27.2.0">
  <diagram name="Page-1" id="W_kgZWfJZMUGTaBotFai">
    <mxGraphModel dx="578" dy="1072" grid="1" gridSize="10" guides="1" tooltips="1" connect="1" arrows="1" fold="1" page="1" pageScale="1" pageWidth="850" pageHeight="1100" math="0" shadow="0">
      <root>
        <mxCell id="0" />
        <mxCell id="1" parent="0" />
        <mxCell id="K6GWsXZ1tZp8k8KryRzN-1" value="crm_cust_info" style="swimlane;fontStyle=0;childLayout=stackLayout;horizontal=1;startSize=30;horizontalStack=0;resizeParent=1;resizeParentMax=0;resizeLast=0;collapsible=1;marginBottom=0;whiteSpace=wrap;html=1;fillColor=#99CCFF;" parent="1" vertex="1">
          <mxGeometry x="250" y="130" width="120" height="70" as="geometry" />
        </mxCell>
        <mxCell id="K6GWsXZ1tZp8k8KryRzN-2" value="cst_id&lt;div&gt;cst_key&lt;/div&gt;" style="text;strokeColor=none;fillColor=none;align=left;verticalAlign=middle;spacingLeft=4;spacingRight=4;overflow=hidden;points=[[0,0.5],[1,0.5]];portConstraint=eastwest;rotatable=0;whiteSpace=wrap;html=1;" parent="K6GWsXZ1tZp8k8KryRzN-1" vertex="1">
          <mxGeometry y="30" width="120" height="40" as="geometry" />
        </mxCell>
        <mxCell id="K6GWsXZ1tZp8k8KryRzN-5" value="&lt;font style=&quot;font-size: 10px;&quot;&gt;Customer Information&lt;/font&gt;" style="text;html=1;align=center;verticalAlign=middle;whiteSpace=wrap;rounded=0;" parent="1" vertex="1">
          <mxGeometry x="240" y="100" width="130" height="30" as="geometry" />
        </mxCell>
        <mxCell id="K6GWsXZ1tZp8k8KryRzN-11" value="crm_prd_info" style="swimlane;fontStyle=0;childLayout=stackLayout;horizontal=1;startSize=30;horizontalStack=0;resizeParent=1;resizeParentMax=0;resizeLast=0;collapsible=1;marginBottom=0;whiteSpace=wrap;html=1;fillColor=#99CCFF;" parent="1" vertex="1">
          <mxGeometry x="260" y="270" width="120" height="60" as="geometry" />
        </mxCell>
        <mxCell id="K6GWsXZ1tZp8k8KryRzN-12" value="prd_key" style="text;strokeColor=none;fillColor=none;align=left;verticalAlign=middle;spacingLeft=4;spacingRight=4;overflow=hidden;points=[[0,0.5],[1,0.5]];portConstraint=eastwest;rotatable=0;whiteSpace=wrap;html=1;" parent="K6GWsXZ1tZp8k8KryRzN-11" vertex="1">
          <mxGeometry y="30" width="120" height="30" as="geometry" />
        </mxCell>
        <mxCell id="K6GWsXZ1tZp8k8KryRzN-13" value="Item 2" style="text;strokeColor=none;fillColor=none;align=left;verticalAlign=middle;spacingLeft=4;spacingRight=4;overflow=hidden;points=[[0,0.5],[1,0.5]];portConstraint=eastwest;rotatable=0;whiteSpace=wrap;html=1;" parent="K6GWsXZ1tZp8k8KryRzN-11" vertex="1">
          <mxGeometry y="60" width="120" as="geometry" />
        </mxCell>
        <mxCell id="K6GWsXZ1tZp8k8KryRzN-15" value="&lt;span style=&quot;font-size: 10px;&quot;&gt;Current &amp;amp; History Product Information&lt;/span&gt;" style="text;html=1;align=center;verticalAlign=middle;whiteSpace=wrap;rounded=0;" parent="1" vertex="1">
          <mxGeometry x="240" y="250" width="170" height="20" as="geometry" />
        </mxCell>
        <mxCell id="K6GWsXZ1tZp8k8KryRzN-16" value="crm_sales_details" style="swimlane;fontStyle=0;childLayout=stackLayout;horizontal=1;startSize=30;horizontalStack=0;resizeParent=1;resizeParentMax=0;resizeLast=0;collapsible=1;marginBottom=0;whiteSpace=wrap;html=1;fillColor=#99CCFF;" parent="1" vertex="1">
          <mxGeometry x="20" y="200" width="120" height="70" as="geometry" />
        </mxCell>
        <mxCell id="K6GWsXZ1tZp8k8KryRzN-17" value="cst_id&lt;br&gt;&lt;div&gt;prd_key&lt;/div&gt;" style="text;strokeColor=none;fillColor=none;align=left;verticalAlign=middle;spacingLeft=4;spacingRight=4;overflow=hidden;points=[[0,0.5],[1,0.5]];portConstraint=eastwest;rotatable=0;whiteSpace=wrap;html=1;" parent="K6GWsXZ1tZp8k8KryRzN-16" vertex="1">
          <mxGeometry y="30" width="120" height="40" as="geometry" />
        </mxCell>
        <mxCell id="K6GWsXZ1tZp8k8KryRzN-18" value="" style="endArrow=classic;html=1;rounded=0;entryX=-0.023;entryY=-0.067;entryDx=0;entryDy=0;entryPerimeter=0;" parent="1" target="K6GWsXZ1tZp8k8KryRzN-2" edge="1">
          <mxGeometry width="50" height="50" relative="1" as="geometry">
            <mxPoint x="140" y="230" as="sourcePoint" />
            <mxPoint x="190" y="180" as="targetPoint" />
            <Array as="points">
              <mxPoint x="170" y="230" />
              <mxPoint x="170" y="160" />
            </Array>
          </mxGeometry>
        </mxCell>
        <mxCell id="K6GWsXZ1tZp8k8KryRzN-19" value="" style="endArrow=classic;html=1;rounded=0;entryX=0;entryY=0.5;entryDx=0;entryDy=0;" parent="1" target="K6GWsXZ1tZp8k8KryRzN-12" edge="1">
          <mxGeometry width="50" height="50" relative="1" as="geometry">
            <mxPoint x="140" y="250" as="sourcePoint" />
            <mxPoint x="250" y="310" as="targetPoint" />
            <Array as="points">
              <mxPoint x="180" y="250" />
              <mxPoint x="180" y="315" />
            </Array>
          </mxGeometry>
        </mxCell>
        <mxCell id="K6GWsXZ1tZp8k8KryRzN-21" value="erp_cust_az12" style="swimlane;fontStyle=0;childLayout=stackLayout;horizontal=1;startSize=30;horizontalStack=0;resizeParent=1;resizeParentMax=0;resizeLast=0;collapsible=1;marginBottom=0;whiteSpace=wrap;html=1;fillColor=#FFCE9F;" parent="1" vertex="1">
          <mxGeometry x="480" y="130" width="120" height="60" as="geometry" />
        </mxCell>
        <mxCell id="K6GWsXZ1tZp8k8KryRzN-22" value="cid" style="text;strokeColor=none;fillColor=none;align=left;verticalAlign=middle;spacingLeft=4;spacingRight=4;overflow=hidden;points=[[0,0.5],[1,0.5]];portConstraint=eastwest;rotatable=0;whiteSpace=wrap;html=1;" parent="K6GWsXZ1tZp8k8KryRzN-21" vertex="1">
          <mxGeometry y="30" width="120" height="30" as="geometry" />
        </mxCell>
        <mxCell id="K6GWsXZ1tZp8k8KryRzN-23" value="erp_loc_a101" style="swimlane;fontStyle=0;childLayout=stackLayout;horizontal=1;startSize=30;horizontalStack=0;resizeParent=1;resizeParentMax=0;resizeLast=0;collapsible=1;marginBottom=0;whiteSpace=wrap;html=1;fillColor=#FFCE9F;" parent="1" vertex="1">
          <mxGeometry x="480" y="260" width="120" height="60" as="geometry" />
        </mxCell>
        <mxCell id="K6GWsXZ1tZp8k8KryRzN-24" value="cid" style="text;strokeColor=none;fillColor=none;align=left;verticalAlign=middle;spacingLeft=4;spacingRight=4;overflow=hidden;points=[[0,0.5],[1,0.5]];portConstraint=eastwest;rotatable=0;whiteSpace=wrap;html=1;" parent="K6GWsXZ1tZp8k8KryRzN-23" vertex="1">
          <mxGeometry y="30" width="120" height="30" as="geometry" />
        </mxCell>
        <mxCell id="K6GWsXZ1tZp8k8KryRzN-26" value="erp_px_cat_g1v2" style="swimlane;fontStyle=0;childLayout=stackLayout;horizontal=1;startSize=30;horizontalStack=0;resizeParent=1;resizeParentMax=0;resizeLast=0;collapsible=1;marginBottom=0;whiteSpace=wrap;html=1;fillColor=#FFCE9F;" parent="1" vertex="1">
          <mxGeometry x="480" y="350" width="120" height="60" as="geometry" />
        </mxCell>
        <mxCell id="K6GWsXZ1tZp8k8KryRzN-27" value="id" style="text;strokeColor=none;fillColor=none;align=left;verticalAlign=middle;spacingLeft=4;spacingRight=4;overflow=hidden;points=[[0,0.5],[1,0.5]];portConstraint=eastwest;rotatable=0;whiteSpace=wrap;html=1;" parent="K6GWsXZ1tZp8k8KryRzN-26" vertex="1">
          <mxGeometry y="30" width="120" height="30" as="geometry" />
        </mxCell>
        <mxCell id="K6GWsXZ1tZp8k8KryRzN-29" value="&lt;font style=&quot;font-size: 21px;&quot;&gt;&lt;b&gt;CRM&lt;/b&gt;&lt;/font&gt;" style="rounded=1;whiteSpace=wrap;html=1;fillColor=#99CCFF;" parent="1" vertex="1">
          <mxGeometry x="160" y="70" width="130" height="30" as="geometry" />
        </mxCell>
        <mxCell id="K6GWsXZ1tZp8k8KryRzN-34" value="" style="endArrow=classic;html=1;rounded=0;exitX=0;exitY=0.5;exitDx=0;exitDy=0;entryX=1.01;entryY=0.725;entryDx=0;entryDy=0;entryPerimeter=0;" parent="1" source="K6GWsXZ1tZp8k8KryRzN-22" target="K6GWsXZ1tZp8k8KryRzN-2" edge="1">
          <mxGeometry width="50" height="50" relative="1" as="geometry">
            <mxPoint x="400" y="200" as="sourcePoint" />
            <mxPoint x="373" y="187" as="targetPoint" />
            <Array as="points">
              <mxPoint x="430" y="175" />
              <mxPoint x="430" y="190" />
            </Array>
          </mxGeometry>
        </mxCell>
        <mxCell id="K6GWsXZ1tZp8k8KryRzN-36" value="" style="endArrow=none;html=1;rounded=0;exitX=0;exitY=0.5;exitDx=0;exitDy=0;" parent="1" source="K6GWsXZ1tZp8k8KryRzN-24" edge="1">
          <mxGeometry width="50" height="50" relative="1" as="geometry">
            <mxPoint x="430" y="300" as="sourcePoint" />
            <mxPoint x="430" y="190" as="targetPoint" />
            <Array as="points">
              <mxPoint x="430" y="305" />
            </Array>
          </mxGeometry>
        </mxCell>
        <mxCell id="K6GWsXZ1tZp8k8KryRzN-37" value="" style="endArrow=classic;html=1;rounded=0;exitX=0;exitY=0.5;exitDx=0;exitDy=0;entryX=1;entryY=0.5;entryDx=0;entryDy=0;" parent="1" source="K6GWsXZ1tZp8k8KryRzN-27" target="K6GWsXZ1tZp8k8KryRzN-12" edge="1">
          <mxGeometry width="50" height="50" relative="1" as="geometry">
            <mxPoint x="380" y="300" as="sourcePoint" />
            <mxPoint x="430" y="250" as="targetPoint" />
            <Array as="points">
              <mxPoint x="430" y="395" />
              <mxPoint x="430" y="315" />
            </Array>
          </mxGeometry>
        </mxCell>
        <mxCell id="K6GWsXZ1tZp8k8KryRzN-38" value="" style="rounded=1;whiteSpace=wrap;html=1;fillColor=none;dashed=1;" parent="1" vertex="1">
          <mxGeometry x="10" y="100" width="400" height="330" as="geometry" />
        </mxCell>
        <mxCell id="K6GWsXZ1tZp8k8KryRzN-39" value="" style="rounded=1;whiteSpace=wrap;html=1;fillColor=none;dashed=1;" parent="1" vertex="1">
          <mxGeometry x="420" y="100" width="400" height="325" as="geometry" />
        </mxCell>
        <mxCell id="K6GWsXZ1tZp8k8KryRzN-40" value="&lt;span style=&quot;font-size: 21px;&quot;&gt;&lt;b&gt;ERP&lt;/b&gt;&lt;/span&gt;" style="rounded=1;whiteSpace=wrap;html=1;fillColor=#FFCE9F;" parent="1" vertex="1">
          <mxGeometry x="570" y="70" width="130" height="30" as="geometry" />
        </mxCell>
        <mxCell id="K6GWsXZ1tZp8k8KryRzN-41" value="Transactional Records about Sales &amp;amp; Orders" style="text;html=1;align=center;verticalAlign=middle;whiteSpace=wrap;rounded=0;fontSize=10;" parent="1" vertex="1">
          <mxGeometry x="20" y="170" width="120" height="30" as="geometry" />
        </mxCell>
        <mxCell id="K6GWsXZ1tZp8k8KryRzN-42" value="Product Categories" style="text;html=1;align=center;verticalAlign=middle;whiteSpace=wrap;rounded=0;fontSize=10;" parent="1" vertex="1">
          <mxGeometry x="480" y="110" width="120" height="30" as="geometry" />
        </mxCell>
        <mxCell id="K6GWsXZ1tZp8k8KryRzN-43" value="Extra Customer Information(Birthdate)" style="text;html=1;align=center;verticalAlign=middle;whiteSpace=wrap;rounded=0;fontSize=10;" parent="1" vertex="1">
          <mxGeometry x="460" y="230" width="180" height="30" as="geometry" />
        </mxCell>
        <mxCell id="K6GWsXZ1tZp8k8KryRzN-44" value="Location of Customers(Country)" style="text;html=1;align=center;verticalAlign=middle;whiteSpace=wrap;rounded=0;fontSize=10;" parent="1" vertex="1">
          <mxGeometry x="450" y="330" width="190" height="30" as="geometry" />
        </mxCell>
      </root>
    </mxGraphModel>
  </diagram>
</mxfile>
